<?xml version="1.0" standalone="no"?>
<!DOCTYPE svg PUBLIC "-//W3C//DTD SVG 20010904//EN"
 "http://www.w3.org/TR/2001/REC-SVG-20010904/DTD/svg10.dtd">
<svg version="1.0" xmlns="http://www.w3.org/2000/svg"
 width="512.000000pt" height="512.000000pt" viewBox="0 0 512.000000 512.000000"
 preserveAspectRatio="xMidYMid meet">

<g transform="translate(0.000000,512.000000) scale(0.100000,-0.100000)"
fill="#000000" stroke="none">
<path d="M3375 5026 c-37 -17 -70 -52 -84 -89 -7 -17 -11 -112 -11 -232 0
-187 -2 -207 -20 -238 l-21 -35 -49 33 c-56 38 -141 72 -214 86 -27 5 -227 9
-445 9 -444 0 -485 -5 -599 -65 -90 -47 -162 -111 -209 -187 -22 -35 -75 -153
-119 -262 l-79 -200 -5 146 c-5 159 -11 175 -74 222 -27 21 -38 21 -486 21
-448 0 -459 0 -486 -21 -68 -50 -69 -54 -72 -292 l-3 -216 -130 -162 c-71 -89
-141 -188 -157 -220 l-27 -59 0 -1441 0 -1440 37 -76 c45 -91 103 -147 196
-191 l67 -32 2175 0 2175 0 67 32 c93 44 151 100 196 191 l37 76 3 1465 c2
807 0 1485 -3 1507 -4 30 -97 202 -320 593 l-314 551 -3 219 c-3 241 -4 245
-72 295 -27 20 -40 21 -474 23 -357 2 -453 0 -477 -11z m865 -306 l0 -160
-400 0 -400 0 0 160 0 160 400 0 400 0 0 -160z m-1188 -362 c91 -45 147 -103
191 -196 l32 -67 3 -487 3 -488 -1522 0 -1522 0 6 58 c7 78 20 102 156 274
l116 147 445 1 445 0 130 -131 c72 -72 150 -142 175 -157 l45 -27 683 -3 682
-3 0 377 c0 267 -4 389 -12 418 -17 58 -99 138 -158 155 -33 9 -147 11 -440 9
-438 -3 -422 -1 -493 -72 -27 -27 -59 -95 -157 -342 -68 -170 -125 -311 -127
-314 -2 -2 -31 23 -64 56 l-60 61 110 277 c61 152 122 294 135 315 30 47 104
113 154 137 86 41 111 43 548 41 l420 -2 76 -37z m1486 -423 c144 -253 267
-468 273 -477 9 -17 -26 -18 -681 -18 l-690 0 0 316 c0 345 -5 384 -60 493
-23 47 -26 59 -15 76 6 11 19 32 29 48 l17 27 431 -2 432 -3 264 -460z m-3178
-15 l0 -160 -400 0 -400 0 0 160 0 160 400 0 400 0 0 -160z m1575 135 l25 -24
0 -296 0 -295 -540 0 c-297 0 -540 1 -540 3 0 1 54 137 120 302 74 185 128
307 141 318 19 15 54 17 396 17 l374 0 24 -25z m1943 -2207 l-3 -1433 -22 -40
c-25 -47 -64 -85 -113 -111 -33 -18 -73 -19 -706 -22 l-671 -3 36 73 36 72 3
168 4 168 639 0 639 0 0 1120 0 1120 -640 0 -640 0 0 160 0 160 720 0 720 0
-2 -1432z m-1598 -150 c0 -1249 -1 -1263 -21 -1308 -27 -60 -64 -98 -124 -126
l-50 -24 -1319 0 c-1006 0 -1328 3 -1360 12 -55 16 -138 99 -154 154 -9 32
-12 340 -12 1298 l0 1256 1520 0 1520 0 0 -1262z m1280 142 l0 -960 -560 0
-560 0 0 160 c0 88 2 160 4 160 2 0 23 -16 46 -35 67 -56 177 -104 269 -117
339 -50 641 214 641 559 0 251 -220 684 -530 1043 l-30 35 -26 -30 c-124 -149
-232 -299 -321 -449 l-53 -90 0 342 0 342 560 0 560 0 0 -960z m-652 498 c142
-198 242 -381 293 -537 42 -126 46 -254 10 -344 -61 -156 -202 -252 -371 -252
-169 0 -310 96 -371 252 -36 90 -32 218 10 344 34 106 111 263 186 379 70 110
165 240 175 240 5 0 35 -37 68 -82z"/>
<path d="M560 1600 l0 -1040 1200 0 1200 0 0 1040 0 1040 -1200 0 -1200 0 0
-1040z m2240 0 l0 -880 -1040 0 -1040 0 0 880 0 880 1040 0 1040 0 0 -880z"/>
<path d="M1035 2305 c-22 -9 -59 -34 -82 -57 -100 -98 -97 -248 7 -341 57 -52
103 -67 201 -67 84 0 148 -23 173 -63 9 -13 30 -66 46 -118 72 -232 242 -390
477 -443 40 -9 92 -16 117 -16 89 0 130 -30 183 -133 63 -126 142 -187 244
-187 95 0 195 73 225 163 25 76 15 133 -47 256 -45 90 -66 119 -139 191 -61
61 -104 95 -152 118 -81 39 -203 72 -272 72 -60 0 -128 29 -150 63 -9 13 -30
67 -46 119 -64 205 -208 353 -412 425 -61 22 -95 27 -203 29 -99 3 -140 0
-170 -11z m165 -225 l0 -80 -45 0 c-58 0 -91 16 -106 51 -9 22 -9 36 0 58 15
36 43 49 104 50 l47 1 0 -80z m245 15 c22 -13 58 -39 80 -58 l40 -36 -56 -57
-57 -56 -20 20 c-11 11 -32 28 -46 37 -25 16 -26 22 -26 102 0 83 0 84 23 78
12 -4 40 -17 62 -30z m235 -322 c13 -43 24 -81 24 -85 1 -4 -26 -27 -59 -52
l-60 -45 -27 57 c-16 31 -28 64 -28 72 0 13 107 130 120 130 3 0 17 -35 30
-77z m243 -247 l27 -6 -36 -71 c-40 -81 -41 -81 -141 -32 -69 34 -82 50 -57
67 10 8 39 30 64 49 l45 35 35 -18 c19 -9 47 -20 63 -24z m282 -59 c96 -48 95
-44 14 -97 l-72 -46 -46 15 c-25 9 -47 17 -49 17 -2 1 13 34 33 74 40 79 38
78 120 37z m246 -272 c16 -33 29 -65 29 -72 0 -27 -24 -62 -51 -74 -49 -20
-82 2 -123 81 -20 37 -36 71 -36 74 0 3 28 23 63 45 72 47 69 48 118 -54z"/>
<path d="M880 1280 l0 -80 240 0 240 0 0 80 0 80 -240 0 -240 0 0 -80z"/>
<path d="M880 960 l0 -80 320 0 320 0 0 80 0 80 -320 0 -320 0 0 -80z"/>
</g>
</svg>
